<?xml version="1.0"?>
<svg xmlns="http://www.w3.org/2000/svg" height="512px" viewBox="0 1 511 511.99999" width="512px"><g><path d="m504.226562 303.015625c4.195313 0 7.59375-3.402344 7.59375-7.59375v-204.40625c0-26.394531-20.492187-48.078125-46.402343-50.023437-14.160157-24.476563-40.609375-40.992188-70.863281-40.992188-30.1875 0-56.59375 16.445312-70.773438 40.832031h-75.105469c-11.402343-14.679687-29.203125-24.152343-49.1875-24.152343-34.335937 0-62.269531 27.933593-62.269531 62.265624v18.226563h-39.058594c-3.890625 0-7.148437 2.9375-7.550781 6.808594l-25.113281 241.675781h-49.808594v-254.640625c0-19.296875 15.699219-34.992187 34.992188-34.992187h77.902343c4.195313 0 7.59375-3.402344 7.59375-7.597657 0-4.191406-3.398437-7.59375-7.59375-7.59375h-77.902343c-27.667969 0-50.179688 22.511719-50.179688 50.183594v267.292969c0 27.925781 22.714844 50.644531 50.636719 50.644531h22.84375c4.195312 0 7.59375-3.398437 7.59375-7.59375 0-4.191406-3.398438-7.59375-7.59375-7.59375h-22.84375c-18.695313 0-34.042969-14.550781-35.347657-32.921875h480.742188c-1.304688 18.371094-16.65625 32.921875-35.355469 32.921875h-361.882812c-4.195313 0-7.59375 3.402344-7.59375 7.59375 0 4.195313 3.398437 7.59375 7.59375 7.59375h60.878906l-10.082031 42.238281h-21.003906c-21.820313 0-39.570313 17.753906-39.570313 39.574219v13.640625c0 4.195312 3.398437 7.59375 7.59375 7.59375h318.09375c4.195313 0 7.59375-3.398438 7.59375-7.59375v-13.640625c0-21.820313-17.75-39.574219-39.570313-39.574219h-21.003906l-10.082031-42.238281h109.035156c27.925781 0 50.644531-22.71875 50.644531-50.644531v-37.574219c0-4.191406-3.398437-7.59375-7.59375-7.59375-4.195312 0-7.59375 3.402344-7.59375 7.59375v24.921875h-113.953124l-17.222657-161.359375c-.410156-3.863281-3.667969-6.789063-7.550781-6.789063h-41.894531l-7.644531-73.53125c-.402344-3.867187-3.660157-6.804687-7.550782-6.804687h-39.0625v-18.226563c0-8.09375-1.570312-15.824218-4.390625-22.925781h59.554688c-2.703125 8.121094-4.191407 16.792969-4.191407 25.808594 0 45.121094 36.707032 81.828125 81.828126 81.828125 45.117187 0 81.828124-36.707031 81.828124-81.828125 0-8.339844-1.261718-16.386719-3.589843-23.972656 13.84375 4.667969 23.839843 17.765625 23.839843 33.15625v204.40625c0 4.195312 3.398438 7.597656 7.59375 7.597656zm-96.617187 187.75v6.046875h-302.90625v-6.046875c0-13.445313 10.9375-24.386719 24.382813-24.386719h254.140624c13.445313 0 24.382813 10.941406 24.382813 24.386719zm-61-39.574219h-180.90625l10.082031-42.238281h160.742188zm20.796875-105.539062h-159.863281l16.324219-152.957032h85.195312.214844 41.800781zm-73.4375-233.292969 6.773438 65.148437h-83.703126c-3.878906 0-7.136718 2.929688-7.550781 6.789063l-17.222656 161.355469h-111.5l24.238281-233.292969h32.214844v16.699219c0 4.195312 3.398438 7.59375 7.59375 7.59375s7.59375-3.398438 7.59375-7.59375v-16.699219h94.160156v16.699219c0 4.195312 3.398438 7.59375 7.59375 7.59375 4.195313 0 7.59375-3.398438 7.59375-7.59375v-16.699219zm-47.402344-33.414063v18.226563h-94.15625v-18.226563c0-25.960937 21.117188-47.078124 47.078125-47.078124 10.300781 0 19.832031 3.332031 27.589844 8.964843h-46.855469c-4.195312 0-7.59375 3.402344-7.59375 7.59375 0 4.195313 3.398438 7.597657 7.59375 7.597657h60.363282c3.804687 6.785156 5.980468 14.605468 5.980468 22.921874zm147.988282 69.523438c-36.746094 0-66.640626-29.894531-66.640626-66.640625s29.894532-66.640625 66.640626-66.640625c36.746093 0 66.640624 29.894531 66.640624 66.640625s-29.894531 66.640625-66.640624 66.640625zm0 0" data-original="#000000" class="active-path" data-old_color="#ffffff" fill="#ffffff"/><path d="m287.472656 273.472656c-13.816406 0-25.058594-11.238281-25.058594-25.058594v-32.652343c0-4.191407-3.398437-7.59375-7.59375-7.59375-4.195312 0-7.59375 3.402343-7.59375 7.59375v32.652343c0 22.191407 18.054688 40.246094 40.246094 40.246094s40.246094-18.054687 40.246094-40.246094v-32.652343c0-4.191407-3.398438-7.59375-7.59375-7.59375s-7.59375 3.402343-7.59375 7.59375v32.652343c0 13.820313-11.238281 25.058594-25.058594 25.058594zm0 0" data-original="#000000" class="active-path" data-old_color="#ffffff" fill="#ffffff"/><path d="m425.535156 39.511719c-3.777344-1.832031-8.320312-.261719-10.152344 3.507812l-29.054687 59.777344-13.164063-23.691406c-2.035156-3.667969-6.65625-4.988281-10.324218-2.953125-3.667969 2.039062-4.988282 6.660156-2.953125 10.328125l20.25 36.449219c1.34375 2.414062 3.886719 3.90625 6.640625 3.90625.066406 0 .136718 0 .207031-.003907 2.832031-.074219 5.382813-1.722656 6.621094-4.269531l35.4375-72.902344c1.835937-3.769531.261719-8.316406-3.507813-10.148437zm0 0" data-original="#000000" class="active-path" data-old_color="#ffffff" fill="#ffffff"/><path d="m476.441406 200.757812h-72.898437c-4.195313 0-7.59375 3.402344-7.59375 7.59375 0 4.195313 3.398437 7.59375 7.59375 7.59375h72.898437c4.195313 0 7.59375-3.398437 7.59375-7.59375 0-4.191406-3.398437-7.59375-7.59375-7.59375zm0 0" data-original="#000000" class="active-path" data-old_color="#ffffff" fill="#ffffff"/><path d="m476.441406 236.199219h-57.710937c-4.195313 0-7.59375 3.398437-7.59375 7.59375 0 4.195312 3.398437 7.59375 7.59375 7.59375h57.710937c4.195313 0 7.59375-3.398438 7.59375-7.59375 0-4.195313-3.398437-7.59375-7.59375-7.59375zm0 0" data-original="#000000" class="active-path" data-old_color="#ffffff" fill="#ffffff"/></g> </svg>
